<mxfile host="app.diagrams.net" agent="Mozilla/5.0 (Windows NT 10.0; Win64; x64) AppleWebKit/537.36 (KHTML, like Gecko) Chrome/127.0.0.0 Safari/537.36 Edg/127.0.0.0" version="24.7.6">
  <diagram name="第 1 页" id="I2mhl3vZ0j_2q_KYjGK4">
    <mxGraphModel dx="2059" dy="722" grid="1" gridSize="10" guides="1" tooltips="1" connect="1" arrows="1" fold="1" page="1" pageScale="1" pageWidth="827" pageHeight="1169" math="0" shadow="0">
      <root>
        <mxCell id="0" />
        <mxCell id="1" parent="0" />
        <mxCell id="PsK0lRLjcU3RR_292BMi-26" value="" style="rounded=0;whiteSpace=wrap;html=1;" vertex="1" parent="1">
          <mxGeometry x="110" width="430" height="320" as="geometry" />
        </mxCell>
        <mxCell id="PsK0lRLjcU3RR_292BMi-3" value="" style="edgeStyle=orthogonalEdgeStyle;rounded=0;orthogonalLoop=1;jettySize=auto;html=1;" edge="1" parent="1" source="PsK0lRLjcU3RR_292BMi-1" target="PsK0lRLjcU3RR_292BMi-2">
          <mxGeometry relative="1" as="geometry" />
        </mxCell>
        <mxCell id="PsK0lRLjcU3RR_292BMi-1" value="扫街" style="rounded=0;whiteSpace=wrap;html=1;fontStyle=1" vertex="1" parent="1">
          <mxGeometry x="-240" y="50" width="120" height="60" as="geometry" />
        </mxCell>
        <mxCell id="PsK0lRLjcU3RR_292BMi-5" value="" style="edgeStyle=orthogonalEdgeStyle;rounded=0;orthogonalLoop=1;jettySize=auto;html=1;" edge="1" parent="1" source="PsK0lRLjcU3RR_292BMi-2" target="PsK0lRLjcU3RR_292BMi-4">
          <mxGeometry relative="1" as="geometry" />
        </mxCell>
        <mxCell id="PsK0lRLjcU3RR_292BMi-2" value="拜访" style="rounded=0;whiteSpace=wrap;html=1;fontStyle=1" vertex="1" parent="1">
          <mxGeometry x="-40" y="50" width="120" height="60" as="geometry" />
        </mxCell>
        <mxCell id="PsK0lRLjcU3RR_292BMi-7" value="" style="edgeStyle=orthogonalEdgeStyle;rounded=0;orthogonalLoop=1;jettySize=auto;html=1;" edge="1" parent="1" source="PsK0lRLjcU3RR_292BMi-4" target="PsK0lRLjcU3RR_292BMi-6">
          <mxGeometry relative="1" as="geometry" />
        </mxCell>
        <mxCell id="PsK0lRLjcU3RR_292BMi-4" value="进货" style="rounded=0;whiteSpace=wrap;html=1;fontStyle=1" vertex="1" parent="1">
          <mxGeometry x="160" y="50" width="120" height="60" as="geometry" />
        </mxCell>
        <mxCell id="PsK0lRLjcU3RR_292BMi-6" value="" style="rounded=0;whiteSpace=wrap;html=1;" vertex="1" parent="1">
          <mxGeometry x="360" y="50" width="120" height="60" as="geometry" />
        </mxCell>
        <mxCell id="PsK0lRLjcU3RR_292BMi-10" value="获取营业执照&lt;br&gt;&lt;br&gt;&lt;br&gt;社会统一信用代码：xxxxxxx" style="rounded=0;whiteSpace=wrap;html=1;verticalAlign=top;" vertex="1" parent="1">
          <mxGeometry x="160" y="130" width="120" height="160" as="geometry" />
        </mxCell>
        <mxCell id="PsK0lRLjcU3RR_292BMi-13" value="" style="group" vertex="1" connectable="0" parent="1">
          <mxGeometry x="-310" y="525" width="170" height="170" as="geometry" />
        </mxCell>
        <mxCell id="PsK0lRLjcU3RR_292BMi-11" value="CRM" style="ellipse;whiteSpace=wrap;html=1;aspect=fixed;verticalAlign=top;" vertex="1" parent="PsK0lRLjcU3RR_292BMi-13">
          <mxGeometry width="170" height="170" as="geometry" />
        </mxCell>
        <mxCell id="PsK0lRLjcU3RR_292BMi-12" value="124W+" style="text;html=1;align=center;verticalAlign=middle;whiteSpace=wrap;rounded=0;" vertex="1" parent="PsK0lRLjcU3RR_292BMi-13">
          <mxGeometry x="55" y="70" width="60" height="30" as="geometry" />
        </mxCell>
        <mxCell id="PsK0lRLjcU3RR_292BMi-16" value="" style="group" vertex="1" connectable="0" parent="1">
          <mxGeometry x="-170" y="465" width="250" height="250" as="geometry" />
        </mxCell>
        <mxCell id="PsK0lRLjcU3RR_292BMi-14" value="D套系" style="ellipse;whiteSpace=wrap;html=1;aspect=fixed;verticalAlign=top;" vertex="1" parent="PsK0lRLjcU3RR_292BMi-16">
          <mxGeometry width="250" height="250" as="geometry" />
        </mxCell>
        <mxCell id="PsK0lRLjcU3RR_292BMi-15" value="260W+" style="text;html=1;align=center;verticalAlign=middle;whiteSpace=wrap;rounded=0;" vertex="1" parent="PsK0lRLjcU3RR_292BMi-16">
          <mxGeometry x="95" y="110" width="60" height="30" as="geometry" />
        </mxCell>
        <mxCell id="PsK0lRLjcU3RR_292BMi-17" value="" style="shape=flexArrow;endArrow=classic;html=1;rounded=0;" edge="1" parent="1">
          <mxGeometry width="50" height="50" relative="1" as="geometry">
            <mxPoint x="120" y="589.5" as="sourcePoint" />
            <mxPoint x="170" y="589.5" as="targetPoint" />
          </mxGeometry>
        </mxCell>
        <mxCell id="PsK0lRLjcU3RR_292BMi-20" value="" style="group" vertex="1" connectable="0" parent="1">
          <mxGeometry x="190" y="515" width="170" height="170" as="geometry" />
        </mxCell>
        <mxCell id="PsK0lRLjcU3RR_292BMi-21" value="CRM" style="ellipse;whiteSpace=wrap;html=1;aspect=fixed;verticalAlign=top;" vertex="1" parent="PsK0lRLjcU3RR_292BMi-20">
          <mxGeometry width="170" height="170" as="geometry" />
        </mxCell>
        <mxCell id="PsK0lRLjcU3RR_292BMi-22" value="？W+" style="text;html=1;align=center;verticalAlign=middle;whiteSpace=wrap;rounded=0;" vertex="1" parent="PsK0lRLjcU3RR_292BMi-20">
          <mxGeometry x="55" y="70" width="60" height="30" as="geometry" />
        </mxCell>
        <mxCell id="PsK0lRLjcU3RR_292BMi-23" value="" style="group" vertex="1" connectable="0" parent="1">
          <mxGeometry x="330" y="455" width="250" height="250" as="geometry" />
        </mxCell>
        <mxCell id="PsK0lRLjcU3RR_292BMi-24" value="D套系" style="ellipse;whiteSpace=wrap;html=1;aspect=fixed;verticalAlign=top;" vertex="1" parent="PsK0lRLjcU3RR_292BMi-23">
          <mxGeometry width="250" height="250" as="geometry" />
        </mxCell>
        <mxCell id="PsK0lRLjcU3RR_292BMi-25" value="? W+" style="text;html=1;align=center;verticalAlign=middle;whiteSpace=wrap;rounded=0;" vertex="1" parent="PsK0lRLjcU3RR_292BMi-23">
          <mxGeometry x="95" y="110" width="60" height="30" as="geometry" />
        </mxCell>
      </root>
    </mxGraphModel>
  </diagram>
</mxfile>
